<svg version="1.1" xmlns="http://www.w3.org/2000/svg" xmlns:xlink="http://www.w3.org/1999/xlink" width="84.16524" height="93.45123" viewBox="0,0,84.16524,93.45123"><defs><linearGradient x1="248.84748" y1="144.40632" x2="248.84748" y2="160.76866" gradientUnits="userSpaceOnUse" id="color-1"><stop offset="0" stop-color="#a5ff69"/><stop offset="1" stop-color="#67ff00"/></linearGradient><linearGradient x1="242.16009" y1="162.86629" x2="242.16009" y2="220.52525" gradientUnits="userSpaceOnUse" id="color-2"><stop offset="0" stop-color="#b93f3f"/><stop offset="1" stop-color="#78292a"/></linearGradient></defs><g transform="translate(-199.01576,-143.44728)"><g data-paper-data="{&quot;isPaintingLayer&quot;:true}" fill-rule="nonzero" stroke-linejoin="miter" stroke-miterlimit="10" stroke-dasharray="" stroke-dashoffset="0" style="mix-blend-mode: normal"><path d="M244.62636,153.1602c0,4.20203 -1.49477,7.60846 -3.33866,7.60846c-1.84389,0 -3.33866,-3.40643 -3.33866,-7.60846c0,-4.20203 5.45942,-8.34476 12.93729,-8.71292c11.47983,-0.56518 9.21367,4.88323 7.28085,6.20764c-6.42093,4.39978 -13.54083,0.30414 -13.54083,2.50527z" fill="url(#color-1)" stroke="#000000" stroke-width="2" stroke-linecap="butt"/><path d="M282.08908,219.31645c0.01592,2.17605 0.06345,8.67224 0.09188,12.5583c0.01312,1.7937 -2.85686,3.05238 -5.17436,3.06933c-4.68302,0.03426 -21.2192,0.15525 -21.2192,0.15525l-0.13624,-18.62093c0,0 17.56654,-0.12852 22.08529,-0.16159c2.00094,-0.01464 4.34237,1.59719 4.35263,2.99964z" data-paper-data="{&quot;index&quot;:null}" fill="#4ec300" stroke="#000000" stroke-width="2" stroke-linecap="butt"/><path d="M206.82396,217.03759c4.44767,0.03254 21.73787,0.15904 21.73787,0.15904l-0.1341,18.32801c0,0 -16.27605,-0.11908 -20.88541,-0.15281c-2.28104,-0.01669 -5.10588,-1.25556 -5.09297,-3.02105c0.02798,-3.82493 0.07477,-10.21893 0.09044,-12.36075c0.0101,-1.38039 2.3147,-2.96686 4.28416,-2.95245z" fill="#4ec300" stroke="#000000" stroke-width="2" stroke-linecap="butt"/><path d="M282.02561,193.17061c0,9.80257 -0.16485,23.73285 -6.92277,30.40491c-7.49104,7.39587 -19.99946,11.45427 -31.90525,11.45427c-12.09337,0 -25.97555,-2.74482 -33.48073,-10.34524c-6.54924,-6.63235 -9.7011,-21.88258 -9.7011,-31.51395c0,-16.6318 12.83581,-30.436 29.37006,-36.03306c4.01306,-1.35847 7.56995,-4.25562 11.99298,-4.25562c4.98853,0 9.39351,2.02639 13.78843,3.73194c15.55665,6.03712 26.85837,20.44105 26.85837,36.55674z" fill="#67ff00" stroke="#000000" stroke-width="2" stroke-linecap="butt"/><path d="M241.20261,159.94293c0,0 -6.23092,-0.3824 -13.30284,1.38905c-9.27878,2.32425 -18.93097,7.43246 -18.93097,7.43246c0,0 -5.96135,-14.38334 10.90472,-20.24668c0.24444,-0.05597 8.94255,0.56285 14.05913,4.1034c5.24269,3.62781 7.62008,6.24083 7.62008,6.24083c0,0 2.43159,-4.3269 7.12021,-7.98602c4.83184,-3.77088 11.21119,-2.93764 11.37867,-2.91275c7.3517,1.09261 12.66284,11.28827 12.66284,19.72684c0,0 -9.03273,-5.46305 -14.03911,-6.46627c-5.45843,-1.09381 -17.47273,-1.28086 -17.47273,-1.28086z" fill="#ffffff" stroke="#000000" stroke-width="2" stroke-linecap="butt"/><path d="M219.69875,232.31729c0,-3.73694 0,-18.2642 0,-18.2642h15.39923c0,0 0,13.67517 0,17.54796c0,1.91654 -1.02348,4.29746 -2.50685,4.29746c-3.21371,0 -8.58596,0 -10.38553,0c-1.15981,0 -2.50685,-1.92648 -2.50685,-3.58122z" fill="#67ff00" stroke="#000000" stroke-width="2" stroke-linecap="butt"/><path d="M251.9434,231.97288c0,-3.73694 0,-18.2642 0,-18.2642h15.39923c0,0 0,13.67517 0,17.54796c0,1.91653 -1.02349,4.29746 -2.50685,4.29746c-3.21371,0 -8.58596,0 -10.38553,0c-1.15981,0 -2.50685,-1.92647 -2.50685,-3.58122z" fill="#67ff00" stroke="#000000" stroke-width="2" stroke-linecap="butt"/><path d="M215.77311,223.75854v-16.49605h23.2779v16.49605z" fill="#67ff00" stroke="#000000" stroke-width="0" stroke-linecap="butt"/><path d="M248.7203,223.3412v-14.64623h20.41293v14.64623z" fill="#67ff00" stroke="none" stroke-width="0" stroke-linecap="butt"/><path d="M241.6229,220.52525c-22.05304,0 -28.87592,1.26516 -36.24509,-17.74157c-3.63902,-9.38586 1.99039,-39.63282 36.60322,-39.91601c35.6638,-0.29179 40.78735,32.17956 35.46928,42.10942c-10.89525,20.34352 -13.77437,15.54816 -35.82741,15.54816z" fill="url(#color-2)" stroke="#000000" stroke-width="2.5" stroke-linecap="butt"/><path d="M214.2872,174.6791c0,0 5.1091,4.18682 4.40242,8.07888c-0.70668,3.89206 -4.35582,6.48865 -8.15059,5.79964c-0.98821,-0.17943 -2.66801,-1.10338 -2.66801,-1.10338c0,0 -1.61123,-1.30757 2.2072,-7.89125c1.02715,-2.04514 4.20898,-4.88389 4.20898,-4.88389z" fill="#ffffff" stroke="#000000" stroke-width="2.5" stroke-linecap="butt"/><path d="M235.46367,164.36008c0,0 1.18303,8.67501 -2.26305,10.97574c-3.44608,2.30074 -12.8276,-6.23896 -12.8276,-6.23896c0,0 3.63625,-2.79606 8.63857,-4.04598c2.1274,-1.17944 6.45208,-0.6908 6.45208,-0.6908z" fill="#ffffff" stroke="#000000" stroke-width="2.5" stroke-linecap="butt"/><path d="M262.82569,169.03234c0,0 -8.95247,8.7067 -12.51967,6.55569c-3.5672,-2.15101 -1.97097,-12.13942 -1.97097,-12.13942c0,0 5.13136,0.73274 7.37019,1.59544c2.55062,0.98284 7.12046,3.98829 7.12046,3.98829z" fill="#ffffff" stroke="#000000" stroke-width="2.5" stroke-linecap="butt"/><path d="M277.09939,187.07408c0,0 -9.70762,3.47242 -13.37059,-2.45153c-1.82032,-2.94391 6.83478,-9.21547 6.83478,-9.21547c0,0 3.18833,2.83054 4.22393,4.67917c1.13405,2.02438 2.31188,6.98783 2.31188,6.98783z" fill="#ffffff" stroke="#000000" stroke-width="2.5" stroke-linecap="butt"/><path d="M239.16789,154.5072v-3.16427h4.33276v3.16427z" fill="#67ff00" stroke="#000000" stroke-width="0" stroke-linecap="butt"/><path d="M249.1975,201.38586c0,3.7454 -3.40994,6.78164 -7.61631,6.78164c-4.20637,0 -7.61631,-3.03625 -7.61631,-6.78164c0,-3.27574 2.11975,-8.81625 4.72461,-6.4402c1.30849,1.19355 -0.05252,5.2075 3.24729,5.22493c1.73062,0.00914 1.00119,-4.11255 2.30523,-4.99342c3.00398,-2.02915 4.95549,2.86064 4.95549,6.20868z" fill="#591e1e" stroke="#000000" stroke-width="2.5" stroke-linecap="butt"/><path d="M227.0789,149.80203c0,0 -3.39765,2.19099 -5.52964,2.19099c-2.132,0 -6.15565,-1.14766 -6.15565,-1.14766c0,0 3.81498,-2.19099 5.94698,-2.19099c2.132,0 5.73831,1.14766 5.73831,1.14766z" fill="#000000" stroke="#000000" stroke-width="2.5" stroke-linecap="butt"/><path d="M265.2568,151.04604c0,0 -2.77165,0.313 -4.90365,0.313c-2.132,0 -4.06899,-3.02566 -4.06899,-3.02566c0,0 1.93699,0.313 4.06899,0.313c2.132,0 4.90365,2.39966 4.90365,2.39966z" fill="#000000" stroke="#000000" stroke-width="2.5" stroke-linecap="butt"/><path d="M260.2568,216.88815c0,0 -7.59522,10.4333 -17.73661,10.4333c-10.14139,0 -19.82327,-10.22463 -19.82327,-10.22463c0,0 1.76941,-9.31152 10.85063,-14.18929c4.47481,-2.40354 8.55108,2.52051 8.55108,2.52051c0,0 3.69567,-3.88449 7.5065,-1.57263c7.60042,4.61085 10.65167,13.03274 10.65167,13.03274z" fill="#e87f7f" stroke="#000000" stroke-width="2.5" stroke-linecap="butt"/><path d="M262.80055,219.68605c0,0 -8.38167,-13.60571 -4.64895,-16.32372c7.51124,-5.46937 17.7498,3.71449 17.7498,3.71449c0,0 -3.53031,6.17717 -5.95175,8.10556z" data-paper-data="{&quot;index&quot;:null}" fill="#ffffff" stroke="#000000" stroke-width="2.5" stroke-linecap="butt"/><path d="M207.17277,206.68744c0,0 10.00875,-9.4338 17.65271,-4.1515c3.79868,2.62504 -3.42722,14.91741 -3.42722,14.91741c0,0 -5.41012,-1.75514 -7.66415,-3.46099c-2.46831,-1.86803 -6.56134,-7.30491 -6.56134,-7.30491z" fill="#ffffff" stroke="#000000" stroke-width="2.5" stroke-linecap="butt"/><path d="M242.10286,204.87559v6.67731" fill="none" stroke="#000000" stroke-width="2.5" stroke-linecap="round"/><path d="M224.62603,149.48225c0,0.7151 -0.34782,1.29481 -0.77689,1.29481c-0.42906,0 -0.77689,-0.57971 -0.77689,-1.29481c0,-0.7151 0.34782,-1.29481 0.77689,-1.29481c0.42906,0 0.77689,0.57971 0.77689,1.29481z" fill="#ffffff" stroke="none" stroke-width="0" stroke-linecap="butt"/><path d="M263.64302,149.74121c0,0.57208 -0.19324,1.03585 -0.4316,1.03585c-0.23837,0 -0.4316,-0.46377 -0.4316,-1.03585c0,-0.57208 0.19324,-1.03585 0.4316,-1.03585c0.23837,0 0.4316,0.46377 0.4316,1.03585z" fill="#ffffff" stroke="none" stroke-width="0" stroke-linecap="butt"/></g></g></svg>