<svg version="1.1" xmlns="http://www.w3.org/2000/svg" xmlns:xlink="http://www.w3.org/1999/xlink" width="61.16666" height="61.4" viewBox="0,0,61.16666,61.4"><defs><radialGradient cx="240" cy="180" r="16.81416" gradientUnits="userSpaceOnUse" id="color-1"><stop offset="0" stop-color="#ffcb5b"/><stop offset="1" stop-color="#ffcb5b" stop-opacity="0"/></radialGradient></defs><g transform="translate(-209.43511,-148.9)"><g data-paper-data="{&quot;isPaintingLayer&quot;:true}" fill-rule="nonzero" stroke="#000000" stroke-linecap="butt" stroke-linejoin="miter" stroke-miterlimit="10" stroke-dasharray="" stroke-dashoffset="0" style="mix-blend-mode: normal"><path d="M269.5,180c0,16.18194 -13.2076,29.3 -29.5,29.3c-16.2924,0 -29.5,-13.11806 -29.5,-29.3c0,-16.18194 13.2076,-29.3 29.5,-29.3c16.2924,0 29.5,13.11806 29.5,29.3z" fill="#ffffff" stroke-width="2"/><path d="M256.81416,180c0,9.20475 -7.52796,16.66667 -16.81416,16.66667c-9.2862,0 -16.81416,-7.46192 -16.81416,-16.66667c0,-9.20475 7.52796,-16.66667 16.81416,-16.66667c9.2862,0 16.81416,7.46192 16.81416,16.66667z" fill="url(#color-1)" stroke-width="0"/><path d="M242.60178,178.39821c0,0 8.7135,-8.41474 13.95222,-9.67081c3.76723,-0.90326 11.71444,3.83747 11.71444,3.83747c0,0 1.33333,4.16942 1.33333,6.33334c0,2.27496 -1.33333,7 -1.33333,7c0,0 -7.40929,-2.38574 -11.22245,-3.25541c-5.23106,-1.19305 -14.44422,-4.24458 -14.44422,-4.24458z" fill="#ff0000" stroke-width="2"/><path d="M229.76252,162.94777c-0.90325,-3.76723 3.33747,-11.71444 3.33747,-11.71444c0,0 4.16941,-1.33333 6.33333,-1.33333c2.27496,0 7,1.33333 7,1.33333c0,0 -3.55241,7.57596 -4.42208,11.38912c-1.19305,5.23106 -2.91126,13.77755 -2.91126,13.77755c0,0 -8.0814,-8.2135 -9.33747,-13.45223z" fill="#ff0000" stroke-width="2"/><path d="M223.98288,190.40592c-3.76723,0.90325 -12.21444,-4.00414 -12.21444,-4.00414c0,0 -1.33333,-4.16941 -1.33333,-6.33333c0,-2.27496 1.33333,-7 1.33333,-7c0,0 7.74262,3.38574 11.55578,4.25541c5.23106,1.19305 13.11088,3.57792 13.11088,3.57792c0,0 -7.2135,8.24806 -12.45223,9.50413z" fill="#ff0000" stroke-width="2"/><path d="M251.44104,195.85222c0.90326,3.76723 -4.50414,11.88111 -4.50414,11.88111c0,0 -4.16942,1.33333 -6.33334,1.33333c-2.27497,0 -7,-1.33333 -7,-1.33333c0,0 3.38574,-7.40929 4.25541,-11.22245c1.19305,-5.23106 2.74459,-14.11088 2.74459,-14.11088c0,0 9.58142,8.2135 10.83748,13.45223z" fill="#ff0000" stroke-width="2"/></g></g></svg>