<svg version="1.1" xmlns="http://www.w3.org/2000/svg" xmlns:xlink="http://www.w3.org/1999/xlink" width="480.00001" height="403.30051" viewBox="0,0,480.00001,403.30051"><g transform="translate(0,29.78373)"><g data-paper-data="{&quot;isPaintingLayer&quot;:true}" fill-rule="nonzero" stroke-linejoin="miter" stroke-miterlimit="10" stroke-dasharray="" stroke-dashoffset="0" style="mix-blend-mode: normal"><path d="M3.87831,0.20757h475.04538v150.76817h-475.04537z" fill="#9a683f" stroke="none" stroke-width="1.43433" stroke-linecap="butt"/><path d="M0.15082,148.95201h479.00406v166.9581h-479.00405z" fill="#a5ba00" stroke="none" stroke-width="2.31567" stroke-linecap="butt"/><path d="M0.13485,-1.61381h85.11227v174.0412h-85.11227z" fill="#9a683f" stroke="none" stroke-width="1.10385" stroke-linecap="butt"/><path d="M2.58765,240.02009c4.98802,0.8732 10.51042,1.69484 13.93472,3.85518c4.12496,2.60458 7.54127,5.66952 7.54127,9.29906c0,3.6296 -3.1926,6.78961 -7.54127,9.29905c-3.5549,2.05006 -9.70672,2.42549 -14.72643,3.34932c-1.25486,0.32988 0.50475,0.36226 0.49484,-0.50593c-0.18405,-3.35741 -0.96198,-6.74308 -0.98967,-10.11866c-0.03761,-4.62322 0.11475,-9.28898 0.29688,-13.9132c0.30885,-1.16666 -0.25926,-1.49454 0.98967,-1.26483z" fill="#839f04" stroke="none" stroke-width="1.53681" stroke-linecap="butt"/><path d="M452.39617,147.43423c7.10002,0 13.53288,1.47427 18.19028,3.85525c4.6574,2.38091 7.5414,5.66946 7.5414,9.29906c0,3.62954 -2.88401,6.91809 -7.5414,9.29906c-4.6574,2.38091 -11.09026,3.85518 -18.19028,3.85518c-7.09989,0 -13.53287,-1.47427 -18.19027,-3.85518c-4.6574,-2.38097 -7.54127,-5.66952 -7.54127,-9.29906c0,-3.6296 2.88387,-6.91815 7.54127,-9.29906c4.6574,-2.38097 11.09038,-3.85525 18.19027,-3.85525z" fill="#839f04" stroke="none" stroke-width="1.53681" stroke-linecap="butt"/><path d="M393.01558,145.91644c7.09989,0 13.53274,1.47426 18.19027,3.85518c4.6574,2.38097 7.54128,5.66952 7.54128,9.29906c0,3.6296 -2.88388,6.91815 -7.54128,9.29906c-4.65753,2.38097 -11.09038,3.85525 -18.19027,3.85525c-7.10002,0 -13.53287,-1.47427 -18.19027,-3.85525c-4.65753,-2.38091 -7.5414,-5.66946 -7.5414,-9.29906c0,-3.62954 2.88387,-6.91809 7.5414,-9.29906c4.6574,-2.38091 11.09026,-3.85518 18.19027,-3.85518z" fill="#839f04" stroke="none" stroke-width="1.53681" stroke-linecap="butt"/><path d="M75.32904,241.03195c7.09989,0 13.53275,1.47426 18.19028,3.85518c4.6574,2.38097 7.54127,5.66952 7.54127,9.29906c0,3.6296 -2.88388,6.91815 -7.54127,9.29906c-4.65753,2.38097 -11.09038,3.85525 -18.19027,3.85525c-7.10002,0 -13.53288,-1.47427 -18.19028,-3.85525c-4.65753,-2.38091 -7.5414,-5.66946 -7.5414,-9.29906c0,-3.62954 2.88387,-6.91809 7.5414,-9.29906c4.6574,-2.38091 11.09026,-3.85518 18.19028,-3.85518z" fill="#839f04" stroke="none" stroke-width="1.53681" stroke-linecap="butt"/><path d="M42.66967,170.20126c7.09989,0 13.53274,1.47427 18.19028,3.85518c4.6574,2.38091 7.54127,5.66952 7.54127,9.29906c0,3.6296 -2.88387,6.91815 -7.54127,9.29905c-4.65753,2.38091 -11.09038,3.85525 -18.19027,3.85525c-7.10002,0 -13.53288,-1.47434 -18.19028,-3.85525c-4.65753,-2.38091 -7.54141,-5.66945 -7.54141,-9.29905c0,-3.62954 2.88388,-6.91815 7.54141,-9.29906c4.6574,-2.38091 11.09026,-3.85518 18.19028,-3.85518z" fill="#839f04" stroke="none" stroke-width="1.53681" stroke-linecap="butt"/><path d="M2.58765,192.71527c5.50462,0.73966 10.76182,2.29598 14.72643,4.61414c4.30708,2.52761 7.54141,5.66945 7.54141,9.29906c0,3.62954 -3.19273,6.78962 -7.54141,9.29906c-3.5549,2.05006 -9.70672,2.42542 -14.72643,3.34925c-1.25486,0.32986 0.50475,0.36227 0.49483,-0.50593c-0.18405,-3.35735 -0.98168,-6.71166 -0.98967,-10.11866c-0.00991,-4.38033 0.25141,-8.50777 0.49484,-13.15425c0.06143,-1.16164 -1.75961,-2.98606 0,-2.78268z" fill="#839f04" stroke="none" stroke-width="1.53681" stroke-linecap="butt"/><path d="M103.03993,168.17749c7.10002,0 13.53288,1.47434 18.19028,3.85525c4.6574,2.38091 7.54141,5.66952 7.54141,9.29906c0,3.62954 -2.88401,6.91815 -7.54141,9.29906c-4.6574,2.38091 -11.09025,3.85518 -18.19027,3.85518c-7.09989,0 -13.53288,-1.47426 -18.19027,-3.85518c-4.6574,-2.38091 -7.54127,-5.66952 -7.54127,-9.29906c0,-3.62954 2.88388,-6.91815 7.54127,-9.29906c4.6574,-2.38091 11.09038,-3.85525 18.19028,-3.85525z" fill="#839f04" stroke="none" stroke-width="1.53681" stroke-linecap="butt"/><path d="M51.58971,60.24433l393.2876,-23.19836l25.25874,111.9087l-393.28759,23.19837z" fill="#9a633d" stroke="#905f3f" stroke-width="2.78499" stroke-linecap="butt"/><text transform="translate(145.69022,156.15988) scale(4.15867,4.07274)" font-size="18" xml:space="preserve" fill="#ffffff" fill-rule="nonzero" stroke="#000000" stroke-width="0.5" stroke-linecap="butt" stroke-linejoin="miter" stroke-miterlimit="10" stroke-dasharray="" stroke-dashoffset="0" font-family="Sans Serif" font-weight="400" text-anchor="start" style="mix-blend-mode: normal"><tspan x="0" dy="0">ROPE</tspan></text><text transform="translate(130.03768,73.75291) scale(6.52328,5.32322)" font-size="18" xml:space="preserve" fill="#ffffff" fill-rule="nonzero" stroke="#000000" stroke-width="0.5" stroke-linecap="butt" stroke-linejoin="miter" stroke-miterlimit="10" stroke-dasharray="" stroke-dashoffset="0" font-family="Sans Serif" font-weight="400" text-anchor="start" style="mix-blend-mode: normal"><tspan x="0" dy="0">CUT</tspan></text><path d="M0.27112,310.78103h478.92356v62.73575h-478.92355z" fill="#545279" stroke="none" stroke-width="1.25247" stroke-linecap="butt"/><text transform="translate(223.1024,100.33831) scale(2.00173,1.68155)" font-size="18" xml:space="preserve" fill="#000000" fill-rule="nonzero" stroke="none" stroke-width="1" stroke-linecap="butt" stroke-linejoin="miter" stroke-miterlimit="10" stroke-dasharray="" stroke-dashoffset="0" font-family="Sans Serif" font-weight="400" text-anchor="start" style="mix-blend-mode: normal"><tspan x="0" dy="0">the</tspan></text><path d="M4.96085,174.75463c0,0 7.89714,-0.40473 11.85157,-0.50593c2.62719,-0.06782 5.31541,0.2479 7.90113,0c7.9958,-0.76799 15.6915,-2.31112 23.70314,-3.03558c3.23948,-0.29248 4.77821,0.03641 9.87635,0c20.39063,-0.14472 40.8682,0.03641 61.23319,-0.50593c5.09221,-0.13564 9.96136,-0.83988 14.81453,-1.51779c2.4157,-0.33796 4.55501,-1.0868 6.91339,-1.51786c2.25573,-0.41283 4.56094,-0.78621 6.91352,-1.01186c2.92728,-0.28128 5.92772,-0.34607 8.88861,-0.50593c3.28688,-0.17705 6.57376,-0.44319 9.87635,-0.50593c5.58808,-0.10628 11.24121,0.35514 16.78975,0c2.48487,-0.15888 4.53724,-1.112 6.9134,-1.51779c2.57387,-0.43917 5.28,-0.65368 7.90113,-1.01186c2.31305,-0.31571 4.56479,-0.77108 6.91339,-1.01186c2.59949,-0.26613 5.25025,-0.50593 7.90113,-0.50593c2.65076,0 5.25025,0.46445 7.901,0.50593c8.21913,0.12747 16.46982,0 24.69088,0c8.22106,0 16.5033,0.38142 24.69075,0c2.799,-0.13057 5.16537,-1.18792 7.90113,-1.51779c2.89972,-0.34909 5.95541,-0.24085 8.88861,-0.506c2.67059,-0.24184 5.21084,-0.83981 7.90114,-1.01186c2.61134,-0.16691 5.01918,0.10323 7.901,0c11.52571,-0.41177 23.13038,-0.68093 34.56723,-1.51779c2.86018,-0.20945 4.5371,-1.112 6.91339,-1.51779c2.57373,-0.43917 5.19101,-0.94405 7.901,-1.01186c10.84026,-0.27121 21.74183,0.13557 32.59188,0c2.71206,-0.03339 5.25038,-0.46445 7.90113,-0.50593c8.21913,-0.12753 16.4836,0.24691 24.69088,0c3.02607,-0.09106 5.90209,-0.74171 8.88861,-1.01186c2.61135,-0.23578 5.27008,-0.33698 7.90114,-0.50593c2.63105,-0.16902 5.25218,-0.4493 7.901,-0.50593c5.25811,-0.11233 10.54403,0.10726 15.80214,0c2.97674,-0.06077 5.91586,-0.41593 8.88874,-0.50593c2.62705,-0.07894 7.901,0 7.901,0" fill="none" stroke="#e5e5e5" stroke-width="5.50089" stroke-linecap="round"/><path d="M131.80657,90.51668h16.82452z" fill="none" stroke="#000000" stroke-width="6.83863" stroke-linecap="round"/><path d="M154.27223,90.51668h16.82452z" fill="none" stroke="#000000" stroke-width="6.83863" stroke-linecap="round"/><path d="M178.12349,90.51668h16.82452z" fill="none" stroke="#000000" stroke-width="6.83863" stroke-linecap="round"/><path d="M219.19518,90.51668h-16.82452z" fill="none" stroke="#000000" stroke-width="6.83863" stroke-linecap="round"/><path d="M284.72288,90.51668h16.82452z" fill="none" stroke="#000000" stroke-width="6.83863" stroke-linecap="round"/><path d="M307.6844,90.24864h16.82452z" fill="none" stroke="#000000" stroke-width="6.83863" stroke-linecap="round"/><path d="M334.43158,90.51668h16.82452z" fill="none" stroke="#000000" stroke-width="6.83863" stroke-linecap="round"/><path d="M376.8939,89.7427h-16.82452z" fill="none" stroke="#462d1a" stroke-width="6.83863" stroke-linecap="round"/><path d="M404.15127,88.68559h-16.82452z" fill="none" stroke="#67442b" stroke-width="6.83863" stroke-linecap="round"/><path d="M423.99736,89.99566h-16.82452z" fill="none" stroke="#8c5b35" stroke-width="6.83863" stroke-linecap="round"/><path d="M0,260.73996l454.02622,48.90682l-2.70743,42.17494l-451.31879,-1.08015z" fill="#545279" stroke="none" stroke-width="1.26432" stroke-linecap="butt"/><path d="M37.72119,217.75899c7.10002,0 13.53287,1.47434 18.19028,3.85525c4.65753,2.38091 7.5414,5.66945 7.5414,9.29906c0,3.62954 -2.88387,6.91815 -7.5414,9.29906c-4.6574,2.38091 -11.09025,3.85518 -18.19027,3.85518c-7.09989,0 -13.53274,-1.47427 -18.19027,-3.85518c-4.6574,-2.38091 -7.54128,-5.66952 -7.54128,-9.29906c0,-3.6296 2.88388,-6.91815 7.54128,-9.29906c4.65753,-2.38091 11.09038,-3.85525 18.19028,-3.85525z" fill="#839f04" stroke="none" stroke-width="1.53681" stroke-linecap="butt"/><path d="M113.92643,218.77085c7.09989,0 13.53288,1.47434 18.19028,3.85525c4.6574,2.38091 7.54128,5.66946 7.54128,9.29906c0,3.62954 -2.88388,6.91815 -7.54128,9.29906c-4.6574,2.38091 -11.09038,3.85518 -18.19027,3.85518c-7.10002,0 -13.53288,-1.47426 -18.19027,-3.85518c-4.6574,-2.38091 -7.5414,-5.66952 -7.5414,-9.29906c0,-3.6296 2.88401,-6.91815 7.5414,-9.29906c4.6574,-2.38091 11.09026,-3.85525 18.19028,-3.85525z" fill="#839f04" stroke="none" stroke-width="1.53681" stroke-linecap="butt"/><path d="M68.40122,193.98009c7.10002,0 13.53288,1.47434 18.19028,3.85525c4.6574,2.38091 7.54141,5.66952 7.54141,9.29906c0,3.62954 -2.88401,6.91815 -7.54141,9.29905c-4.6574,2.38091 -11.09025,3.85525 -18.19027,3.85525c-7.09989,0 -13.53287,-1.47434 -18.19027,-3.85525c-4.6574,-2.38091 -7.54127,-5.66952 -7.54127,-9.29905c0,-3.62954 2.88387,-6.91815 7.54127,-9.29906c4.6574,-2.38091 11.09038,-3.85525 18.19027,-3.85525z" fill="#839f04" stroke="none" stroke-width="1.53681" stroke-linecap="butt"/><path d="M143.61679,194.48602c7.09989,0 13.53287,1.47433 18.19027,3.85524c4.6574,2.38091 7.54128,5.66952 7.54128,9.29906c0,3.62954 -2.88388,6.91815 -7.54128,9.29906c-4.6574,2.38091 -11.09038,3.85525 -18.19027,3.85525c-7.10002,0 -13.53288,-1.47434 -18.19028,-3.85525c-4.6574,-2.38091 -7.5414,-5.66952 -7.5414,-9.29906c0,-3.62954 2.88401,-6.91815 7.5414,-9.29906c4.6574,-2.38091 11.09026,-3.85524 18.19028,-3.85524z" fill="#839f04" stroke="none" stroke-width="1.53681" stroke-linecap="butt"/><path d="M170.33801,168.68341c7.10002,0 13.53288,1.47434 18.19028,3.85525c4.6574,2.38091 7.5414,5.66952 7.5414,9.29906c0,3.62954 -2.88401,6.91815 -7.5414,9.29905c-4.6574,2.38091 -11.09026,3.85525 -18.19028,3.85525c-7.09989,0 -13.53287,-1.47434 -18.19027,-3.85525c-4.6574,-2.38091 -7.54128,-5.66952 -7.54128,-9.29905c0,-3.62954 2.88388,-6.91815 7.54128,-9.29906c4.6574,-2.38091 11.09038,-3.85525 18.19027,-3.85525z" fill="#839f04" stroke="none" stroke-width="1.53681" stroke-linecap="butt"/><path d="M152.52382,248.11503c7.10002,0 13.53287,1.47427 18.19027,3.85518c4.6574,2.38091 7.54141,5.66952 7.54141,9.29906c0,3.6296 -2.88401,6.91815 -7.54141,9.29906c-4.6574,2.38091 -11.09025,3.85525 -18.19027,3.85525c-7.09989,0 -13.53288,-1.47434 -18.19028,-3.85525c-4.6574,-2.38091 -7.54127,-5.66946 -7.54127,-9.29906c0,-3.62954 2.88387,-6.91815 7.54127,-9.29906c4.6574,-2.38091 11.09039,-3.85518 18.19028,-3.85518z" fill="#839f04" stroke="none" stroke-width="1.53681" stroke-linecap="butt"/><path d="M182.21418,222.81835c7.09989,0 13.53288,1.47427 18.19028,3.85519c4.6574,2.38097 7.5414,5.66952 7.5414,9.29905c0,3.6296 -2.88401,6.91815 -7.5414,9.29906c-4.6574,2.38097 -11.09039,3.85525 -18.19028,3.85525c-7.09989,0 -13.53287,-1.47427 -18.19027,-3.85525c-4.6574,-2.38091 -7.54141,-5.66946 -7.54141,-9.29906c0,-3.62954 2.88401,-6.91808 7.54141,-9.29905c4.6574,-2.38091 11.09038,-3.85519 18.19027,-3.85519z" fill="#839f04" stroke="none" stroke-width="1.53681" stroke-linecap="butt"/><path d="M211.90454,195.49794c7.09989,0 13.53288,1.47427 18.19028,3.85519c4.6574,2.38091 7.54127,5.66952 7.54127,9.29906c0,3.6296 -2.88387,6.91815 -7.54127,9.29905c-4.6574,2.38091 -11.09039,3.85525 -18.19028,3.85525c-7.10002,0 -13.53287,-1.47434 -18.19027,-3.85525c-4.6574,-2.38091 -7.54141,-5.66945 -7.54141,-9.29905c0,-3.62954 2.88401,-6.91815 7.54141,-9.29906c4.6574,-2.38091 11.09025,-3.85519 18.19027,-3.85519z" fill="#839f04" stroke="none" stroke-width="1.53681" stroke-linecap="butt"/><path d="M234.66708,167.67155c7.10002,0 13.53288,1.47434 18.19028,3.85525c4.6574,2.38091 7.5414,5.66946 7.5414,9.29906c0,3.62954 -2.884,6.91815 -7.5414,9.29906c-4.6574,2.38091 -11.09026,3.85518 -18.19028,3.85518c-7.09989,0 -13.53287,-1.47427 -18.19027,-3.85518c-4.6574,-2.38091 -7.54128,-5.66952 -7.54128,-9.29906c0,-3.6296 2.88388,-6.91815 7.54128,-9.29906c4.6574,-2.38091 11.09038,-3.85525 18.19027,-3.85525z" fill="#839f04" stroke="none" stroke-width="1.53681" stroke-linecap="butt"/><path d="M219.8219,256.20997c7.10002,0 13.53288,1.47427 18.19028,3.85519c4.6574,2.38091 7.5414,5.66953 7.5414,9.29906c0,3.6296 -2.88401,6.91815 -7.5414,9.29906c-4.6574,2.38091 -11.09026,3.85525 -18.19028,3.85525c-7.09989,0 -13.53287,-1.47434 -18.19027,-3.85525c-4.6574,-2.38091 -7.54128,-5.66945 -7.54128,-9.29906c0,-3.62953 2.88388,-6.91815 7.54128,-9.29906c4.6574,-2.38091 11.09038,-3.85519 18.19027,-3.85519z" fill="#839f04" stroke="none" stroke-width="1.53681" stroke-linecap="butt"/><path d="M252.48127,228.38357c7.10002,0 13.53287,1.47434 18.19027,3.85525c4.6574,2.38091 7.5414,5.66952 7.5414,9.29906c0,3.62954 -2.88401,6.91815 -7.5414,9.29906c-4.6574,2.38091 -11.09026,3.85524 -18.19027,3.85524c-7.09989,0 -13.53287,-1.47433 -18.19027,-3.85524c-4.6574,-2.38091 -7.54128,-5.66952 -7.54128,-9.29906c0,-3.62954 2.88388,-6.91815 7.54128,-9.29906c4.6574,-2.38091 11.09038,-3.85525 18.19027,-3.85525z" fill="#839f04" stroke="none" stroke-width="1.53681" stroke-linecap="butt"/><path d="M277.22328,199.03946c7.09989,0 13.53287,1.47426 18.19027,3.85524c4.6574,2.38091 7.54128,5.66946 7.54128,9.29906c0,3.62954 -2.88388,6.91809 -7.54128,9.29906c-4.6574,2.38091 -11.09038,3.85518 -18.19027,3.85518c-7.10002,0 -13.53287,-1.47426 -18.19027,-3.85518c-4.65753,-2.38097 -7.5414,-5.66952 -7.5414,-9.29906c0,-3.6296 2.88387,-6.91815 7.5414,-9.29906c4.6574,-2.38097 11.09026,-3.85524 18.19027,-3.85524z" fill="#839f04" stroke="none" stroke-width="1.53681" stroke-linecap="butt"/><path d="M300.97549,169.18941c7.10002,0 13.53288,1.47426 18.19028,3.85518c4.6574,2.38091 7.5414,5.66952 7.5414,9.29906c0,3.6296 -2.88401,6.91815 -7.5414,9.29906c-4.6574,2.38091 -11.09026,3.85524 -18.19028,3.85524c-7.09989,0 -13.53287,-1.47433 -18.19027,-3.85524c-4.6574,-2.38091 -7.54127,-5.66946 -7.54127,-9.29906c0,-3.62954 2.88387,-6.91815 7.54127,-9.29906c4.6574,-2.38091 11.09038,-3.85518 18.19027,-3.85518z" fill="#839f04" stroke="none" stroke-width="1.53681" stroke-linecap="butt"/><path d="M283.1613,263.79898c7.09989,0 13.53288,1.47427 18.19028,3.85519c4.6574,2.38091 7.5414,5.66953 7.5414,9.29906c0,3.6296 -2.88401,6.91815 -7.5414,9.29906c-4.6574,2.38091 -11.09039,3.85525 -18.19028,3.85525c-7.09989,0 -13.53287,-1.47434 -18.19027,-3.85525c-4.6574,-2.38091 -7.5414,-5.66945 -7.5414,-9.29906c0,-3.62953 2.88401,-6.91815 7.5414,-9.29906c4.6574,-2.38091 11.09038,-3.85519 18.19027,-3.85519z" fill="#839f04" stroke="none" stroke-width="1.53681" stroke-linecap="butt"/><path d="M311.86199,235.46666c7.09989,0 13.53287,1.47434 18.19027,3.85525c4.6574,2.38091 7.54128,5.66946 7.54128,9.29906c0,3.62954 -2.88388,6.91815 -7.54128,9.29905c-4.6574,2.38091 -11.09038,3.85519 -18.19027,3.85519c-7.10002,0 -13.53287,-1.47427 -18.19027,-3.85519c-4.6574,-2.38091 -7.5414,-5.66952 -7.5414,-9.29905c0,-3.6296 2.88401,-6.91815 7.5414,-9.29906c4.6574,-2.38091 11.09026,-3.85525 18.19027,-3.85525z" fill="#839f04" stroke="none" stroke-width="1.53681" stroke-linecap="butt"/><path d="M343.53169,205.6166c7.09989,0 13.53274,1.47427 18.19027,3.85519c4.6574,2.38091 7.54127,5.66952 7.54127,9.29906c0,3.6296 -2.88387,6.91815 -7.54127,9.29906c-4.65753,2.38097 -11.09038,3.85525 -18.19027,3.85525c-7.10002,0 -13.53288,-1.47427 -18.19028,-3.85525c-4.65753,-2.38091 -7.5414,-5.66946 -7.5414,-9.29906c0,-3.62954 2.88387,-6.91815 7.5414,-9.29906c4.6574,-2.38091 11.09026,-3.85519 18.19028,-3.85519z" fill="#839f04" stroke="none" stroke-width="1.53681" stroke-linecap="butt"/><path d="M370.25291,176.27242c7.10002,0 13.53288,1.47434 18.19028,3.85525c4.6574,2.38091 7.5414,5.66945 7.5414,9.29905c0,3.62954 -2.88401,6.91815 -7.5414,9.29906c-4.6574,2.38091 -11.09026,3.85519 -18.19028,3.85519c-7.09989,0 -13.53287,-1.47427 -18.19027,-3.85519c-4.6574,-2.38091 -7.54127,-5.66952 -7.54127,-9.29906c0,-3.6296 2.88387,-6.91815 7.54127,-9.29905c4.6574,-2.38091 11.09038,-3.85525 18.19027,-3.85525z" fill="#839f04" stroke="none" stroke-width="1.53681" stroke-linecap="butt"/><path d="M433.59231,177.28428c7.09989,0 13.53287,1.47434 18.19027,3.85525c4.6574,2.38091 7.5414,5.66952 7.5414,9.29906c0,3.62954 -2.88401,6.91815 -7.5414,9.29905c-4.6574,2.38091 -11.09038,3.85525 -18.19027,3.85525c-7.09989,0 -13.53287,-1.47434 -18.19027,-3.85525c-4.6574,-2.38091 -7.5414,-5.66952 -7.5414,-9.29905c0,-3.62954 2.88401,-6.91815 7.5414,-9.29906c4.6574,-2.38091 11.09038,-3.85525 18.19027,-3.85525z" fill="#839f04" stroke="none" stroke-width="1.53681" stroke-linecap="butt"/><path d="M412.80911,211.18183c7.09989,0 13.53288,1.47433 18.19028,3.85524c4.6574,2.38091 7.54127,5.66952 7.54127,9.29906c0,3.62954 -2.88387,6.91815 -7.54127,9.29906c-4.6574,2.38091 -11.09039,3.85525 -18.19028,3.85525c-7.10002,0 -13.53287,-1.47434 -18.19027,-3.85525c-4.6574,-2.38091 -7.5414,-5.66952 -7.5414,-9.29906c0,-3.62954 2.88401,-6.91815 7.5414,-9.29906c4.6574,-2.38091 11.09026,-3.85524 18.19027,-3.85524z" fill="#839f04" stroke="none" stroke-width="1.53681" stroke-linecap="butt"/><path d="M390.04644,242.04381c7.10002,0 13.53287,1.47427 18.19027,3.85525c4.65753,2.38091 7.5414,5.66946 7.5414,9.29906c0,3.62954 -2.88387,6.91809 -7.5414,9.29906c-4.6574,2.38091 -11.09026,3.85518 -18.19027,3.85518c-7.09989,0 -13.53275,-1.47426 -18.19028,-3.85518c-4.6574,-2.38097 -7.54127,-5.66952 -7.54127,-9.29906c0,-3.6296 2.88387,-6.91815 7.54127,-9.29906c4.65753,-2.38097 11.09039,-3.85525 18.19028,-3.85525z" fill="#839f04" stroke="none" stroke-width="1.53681" stroke-linecap="butt"/><path d="M362.33555,270.882c7.09989,0 13.53287,1.47434 18.19027,3.85525c4.6574,2.38091 7.54127,5.66953 7.54127,9.29906c0,3.62953 -2.88387,6.91815 -7.54127,9.29906c-4.6574,2.38091 -11.09038,3.85518 -18.19027,3.85518c-7.10002,0 -13.53287,-1.47426 -18.19027,-3.85518c-4.6574,-2.38091 -7.54141,-5.66953 -7.54141,-9.29906c0,-3.62953 2.88401,-6.91815 7.54141,-9.29906c4.6574,-2.38091 11.09026,-3.85525 18.19027,-3.85525z" fill="#839f04" stroke="none" stroke-width="1.53681" stroke-linecap="butt"/><path d="M439.53033,278.97693c7.10002,0 13.53287,1.47434 18.19027,3.85525c4.65753,2.38091 7.5414,5.66945 7.5414,9.29905c0,3.62953 -2.88387,6.91815 -7.5414,9.29906c-4.6574,2.38091 -11.09026,3.85519 -18.19027,3.85519c-7.09989,0 -13.53274,-1.47427 -18.19027,-3.85519c-4.6574,-2.38091 -7.54127,-5.66953 -7.54127,-9.29906c0,-3.6296 2.88387,-6.91814 7.54127,-9.29905c4.65753,-2.38091 11.09038,-3.85525 18.19027,-3.85525z" fill="#839f04" stroke="none" stroke-width="1.53681" stroke-linecap="butt"/><path d="M453.38584,247.6091c7.10002,0 13.53288,1.47427 18.19028,3.85518c4.6574,2.38091 7.5414,5.66952 7.5414,9.29906c0,3.6296 -2.88401,6.91815 -7.5414,9.29906c-4.6574,2.38091 -11.09026,3.85525 -18.19028,3.85525c-7.09989,0 -13.53287,-1.47434 -18.19027,-3.85525c-4.6574,-2.38091 -7.54127,-5.66945 -7.54127,-9.29906c0,-3.62954 2.88387,-6.91815 7.54127,-9.29906c4.6574,-2.38091 11.09038,-3.85518 18.19027,-3.85518z" fill="#839f04" stroke="none" stroke-width="1.53681" stroke-linecap="butt"/><path d="M473.17938,213.20562c1.92988,-0.28234 5.4294,-1.14038 5.93815,0c1.90605,4.62119 0.1543,9.51456 0,14.1661c-0.13459,4.02526 1.07481,7.95839 -0.98967,12.14245c-0.28902,0.62832 -2.56923,0.20135 -4.94848,0c-6.39331,-0.70734 -13.53275,-1.47434 -18.19028,-3.85525c-4.6574,-2.38091 -7.54128,-5.66945 -7.54128,-9.29906c0,-3.62954 2.88388,-6.91815 7.54128,-9.29906c4.65753,-2.38091 11.90386,-2.9162 18.19028,-3.85518z" fill="#839f04" stroke="none" stroke-width="1.53681" stroke-linecap="butt"/><g fill="none" stroke="#000000" stroke-width="6"><path d="M112.97528,90.76965h12.02452z" stroke-linecap="round"/><path d="M127.78194,104.93581l-31.58573,-14.25661" stroke-linecap="round"/><path d="M127.07462,75.59169l-31.82964,12.6483" stroke-linecap="round"/><path d="M79.3302,70.53232c3.21976,0 6.13814,0.90665 8.25025,2.37282c2.11349,1.46519 3.42061,3.48896 3.42061,5.72213c0,2.23316 -1.30712,4.25694 -3.42061,5.72213c-2.11211,1.46617 -5.03049,2.37282 -8.25025,2.37282c-3.21976,0 -6.13824,-0.90664 -8.25025,-2.37282c-2.11349,-1.46519 -3.42061,-3.48896 -3.42061,-5.72213c0,-2.23316 1.30712,-4.25695 3.42061,-5.72213c2.11201,-1.46617 5.0305,-2.37282 8.25025,-2.37282z" stroke-linecap="butt"/><path d="M79.68386,95.32308c3.21976,0 6.13814,0.90665 8.25025,2.37282c2.11349,1.46519 3.42061,3.4889 3.42061,5.72213c0,2.23316 -1.30712,4.25694 -3.42061,5.72213c-2.11211,1.46617 -5.03049,2.37282 -8.25025,2.37282c-3.21976,0 -6.13823,-0.90665 -8.25025,-2.37282c-2.11349,-1.46519 -3.42061,-3.48896 -3.42061,-5.72213c0,-2.23323 1.30712,-4.25695 3.42061,-5.72213c2.11201,-1.46617 5.03049,-2.37282 8.25025,-2.37282z" stroke-linecap="butt"/><path d="M86.04974,94.81715l6.36597,-6.07123z" stroke-linecap="round"/><path d="M93.83034,88.24l-6.36597,-3.03558z" stroke-linecap="round"/></g><path d="M38.71086,269.36421c0,0 0.80962,3.87545 0.98967,5.81825c0.1485,1.59878 0,2.02676 0,4.80634c0,11.11946 0.14451,22.27222 0,33.39161c-0.03555,2.77964 -0.38987,3.03565 -0.49484,4.55344c-0.22565,3.28453 -0.42554,6.57913 -0.49484,9.8657c-0.09698,4.63231 0,9.27983 0,13.9132c0,1.4318 0,2.8686 0,4.3004c0,2.8636 0.12081,5.73727 0,8.60087c-0.20981,4.97133 -0.98967,14.92505 -0.98967,14.92505" fill="none" stroke="#565d96" stroke-width="6.10135" stroke-linecap="round"/><path d="M54.54571,268.85828c0,0 0.71856,13.83524 0.98967,20.74332c0.06736,1.72723 0,3.03762 0,4.55337c0,2.8636 -0.16022,5.73832 0,8.60087c0.17027,3.03558 0.81953,6.07123 0.98967,9.10681c0.16035,2.86261 0,5.73727 0,8.60087c0,4.3804 0.20388,8.77495 0,13.15431c-0.1266,2.69965 -0.91445,5.39424 -0.98967,8.09494c-0.25334,9.09667 0,27.32041 0,27.32041" fill="none" stroke="#565d96" stroke-width="6.10135" stroke-linecap="round"/><path d="M83.2464,270.882v98.65708" fill="none" stroke="#565d96" stroke-width="6.10135" stroke-linecap="round"/><path d="M94.1329,273.41172c0,0 0.92437,3.70439 0.98967,5.56523c0.26326,7.41196 -0.2791,14.84914 0,22.2611c0.06929,1.85273 0.92231,2.57417 0.98967,4.04744c0.26725,5.89516 -0.26133,11.81257 0,17.70774c0.06723,1.52483 0.81347,3.03051 0.98967,4.55337c0.15443,1.34581 -0.13266,2.65612 0,4.0475c0.53051,5.56319 1.18363,11.14059 1.97934,16.69574c0.19796,1.38834 0.8234,2.69162 0.98967,4.0475c0.16434,1.34476 0,2.69965 0,4.04744c0,1.34784 0.16434,2.70274 0,4.0475c-0.16627,1.35589 -0.8234,2.69155 -0.98967,4.04744c-0.16434,1.34482 0,2.69966 0,4.0475c0,0.33692 0,0 0,0" fill="none" stroke="#565d96" stroke-width="6.10135" stroke-linecap="round"/><path d="M120.85412,276.44729c0,0 0.89075,9.44575 0.98967,14.16616c0.22965,10.95037 0.25141,21.93525 0,32.8857c-0.07715,3.37355 -0.91639,6.74505 -0.98967,10.11866c-0.25733,11.96125 0,35.92128 0,35.92128" fill="none" stroke="#565d96" stroke-width="6.10135" stroke-linecap="round"/><path d="M133.71996,278.47101c0,0 0.43946,15.52613 0.98967,23.27297c0.13859,1.93675 0.64127,3.03861 0.98967,4.55343c0.31079,1.34877 0.9066,2.68951 0.98967,4.04744c0.24742,4.04139 0,8.09896 0,12.14238c0,11.11946 0.23956,22.27322 0,33.39163c-0.09106,4.21547 -0.68481,8.43594 -0.98967,12.64837c-0.07715,1.05334 0,1.01186 0,1.01186" fill="none" stroke="#565d96" stroke-width="6.10135" stroke-linecap="round"/><path d="M163.41032,279.48287c0,0 1.74377,6.73504 1.97934,10.11873c0.42361,6.06109 0.52652,12.15449 0,18.2136c-0.13459,1.55215 -1.80521,3.0022 -1.97934,4.55337c-0.48891,4.37328 0.24549,8.77594 0,13.1543c-0.08514,1.5249 -0.88277,3.02853 -0.98967,4.55337c-0.22372,3.19853 -0.32071,6.41631 0,9.61273c0.33847,3.38171 1.75562,6.73399 1.97934,10.11873c0.43546,6.56702 0,19.73139 0,19.73139" fill="none" stroke="#565d96" stroke-width="6.10135" stroke-linecap="round"/><path d="M179.24517,282.51851c0,0 0.89063,7.75796 0.98967,11.63645c0.22965,8.92869 0.19989,17.88577 0,26.81447c-0.12867,5.73022 -0.79969,11.47159 -0.98967,17.20175c-0.14051,4.21138 -0.39192,8.44101 0,12.64837c0.26918,2.88078 1.52997,5.72614 1.97934,8.60087c0.20981,1.34377 0.16422,2.70268 0,4.04744c-0.16628,1.35595 -0.76995,2.69359 -0.98967,4.0475c-0.10883,0.67185 0,2.02371 0,2.02371" fill="none" stroke="#565d96" stroke-width="6.10135" stroke-linecap="round"/><path d="M207.94586,287.07187c0,0 0.44924,3.72468 0.98967,5.56529c0.4513,1.53603 1.76361,3.00423 1.97934,4.55337c0.44538,3.19249 0,6.41221 0,9.61279c0,9.94055 0,19.9095 0,29.85005c0,4.88633 0.24535,9.7878 0,14.6721c-0.08514,1.69287 -0.89861,3.36649 -0.98967,5.05929c-0.23763,4.37836 0,13.15431 0,13.15431" fill="none" stroke="#565d96" stroke-width="6.10135" stroke-linecap="round"/><path d="M221.80124,286.56595c0,0 0.52858,7.09019 0.98967,10.62459c0.19796,1.52187 0.8136,3.03058 0.98967,4.55344c0.15443,1.34581 -0.13845,2.70169 0,4.04743c0.19204,1.85886 0.91252,3.70448 0.9898,5.5653c0.25334,6.06411 0,12.14849 0,18.21359c0,1.51582 -0.29108,2.70776 0,4.0475c0.37209,1.70801 1.62696,3.3503 1.97934,5.05929c0.31065,1.50772 0,3.03762 0,4.55344c0,5.89615 0.22166,11.81251 0,17.70768c-0.10896,2.86868 -0.98967,8.60087 -0.98967,8.60087" fill="none" stroke="#565d96" stroke-width="6.10135" stroke-linecap="round"/><path d="M244.56391,290.61343c0,0 3.70135,6.02461 4.94835,9.10681c0.73826,1.82237 0.91446,3.7044 0.98967,5.56523c0.2554,6.40108 -0.26725,12.82443 0,19.22553c0.06736,1.59977 0.87891,3.02847 0.98967,4.55337c0.21973,3.03058 0,6.07425 0,9.10681c0,3.03262 0.17027,6.07524 0,9.10681c-0.16035,2.86768 -0.86294,5.73227 -0.98967,8.60087c-0.20183,4.54737 0,13.66023 0,13.66023" fill="none" stroke="#565d96" stroke-width="6.10135" stroke-linecap="round"/><path d="M263.36777,291.62532c0,0 -0.98967,4.38033 -0.98967,6.57714c0,3.20557 0.32263,6.42532 0.98967,9.61273c0.32457,1.54406 1.5498,3.01536 1.97934,4.55337c1.21931,4.36519 2.31975,8.75771 2.96901,13.1543c0.67103,4.53922 0.59388,9.11285 0.98967,13.66017c0.26326,3.03459 0.89076,6.07024 0.98967,9.10681c0.23158,7.07498 0,21.24924 0,21.24924" fill="none" stroke="#565d96" stroke-width="6.10135" stroke-linecap="round"/><path d="M290.08899,294.66089c0,0 0.91059,6.44052 1.97947,9.61272c0.58384,1.73335 2.52955,3.31488 2.96901,5.05937c0.88676,3.51319 0.82532,7.08407 0.98967,10.62459c0.16422,3.53749 -0.20981,7.08816 0,10.62459c0.12068,2.0278 0.89063,4.04343 0.98967,6.07123c0.23158,4.71632 0,9.44885 0,14.16616c0,2.69556 0.20182,5.40135 0,8.09494c-0.12673,1.69181 -0.83138,3.36847 -0.98967,5.05929c-0.1722,1.85075 0,5.56529 0,5.56529" fill="none" stroke="#565d96" stroke-width="6.10135" stroke-linecap="round"/><path d="M309.88265,298.20246c0,0 0.74019,8.43488 0.98967,12.64831c0.07908,1.3468 -0.26326,2.70677 0,4.0475c0.39979,2.03991 1.59926,4.03125 1.97934,6.07116c0.28103,1.50975 -0.31079,3.04572 0,4.55344c0.35226,1.70906 1.73192,3.34622 1.97934,5.05929c0.4137,2.85655 0,5.73733 0,8.60087c0,10.10859 0,30.35605 0,30.35605" fill="none" stroke="#565d96" stroke-width="6.10135" stroke-linecap="round"/><path d="M333.63486,299.21432c0,0 4.4615,11.77307 5.93802,17.70766c0.83331,3.34622 0.86307,6.74511 0.98967,10.11866c0.20195,5.39022 0,10.79868 0,16.18989c0,8.76074 0,26.30854 0,26.30854" fill="none" stroke="#565d96" stroke-width="6.10135" stroke-linecap="round"/><path d="M350.45938,301.23804c0,0 0.56606,5.06542 0.98967,7.58902c0.56606,3.37355 1.10456,6.7623 1.97934,10.11866c0.44344,1.70301 1.16393,3.39277 1.97934,5.05937c0.83537,1.70597 2.17137,3.34826 2.96914,5.05929c0.85302,1.83251 1.63094,3.69032 1.97934,5.56529c0.31272,1.67667 0,3.3746 0,5.05929c0,3.20057 0.46315,6.42032 0,9.61279c-0.20002,1.38525 -1.47858,2.6824 -1.97934,4.04744c-0.48891,1.33468 -0.9066,2.68958 -0.9898,4.0475c-0.24742,4.04139 0,12.14238 0,12.14238" fill="none" stroke="#565d96" stroke-width="6.10135" stroke-linecap="round"/><path d="M380.14974,369.53908c0,0 -0.82738,0.37234 -0.98967,0c-0.64733,-1.48948 -0.56812,-3.04268 -0.98967,-4.55343c-0.89668,-3.20862 -2.33765,-6.38792 -2.96901,-9.61273c-0.36025,-1.84357 0,-3.71151 0,-5.56523c0,-3.36953 0.2196,-6.75117 0,-10.11873c-0.1109,-1.69181 -0.83936,-3.3675 -0.9898,-5.05929c-0.18005,-2.0197 0.18018,-4.05151 0,-6.07123c-0.15044,-1.69181 -0.83923,-3.3675 -0.98967,-5.05929c-0.18005,-2.0197 0.14065,-4.05054 0,-6.07123c-0.18804,-2.69866 -0.44525,-5.40846 -0.98967,-8.09494c-0.44525,-2.20386 -1.97934,-6.57715 -1.97934,-6.57715" fill="none" stroke="#565d96" stroke-width="6.10135" stroke-linecap="round"/><path d="M383.11875,304.27362c0,0 1.44291,3.70144 1.97934,5.5653c1.11241,3.86637 2.07632,7.75598 2.96901,11.63645c0.42554,1.84772 0.91844,2.57521 0.98967,5.56529c0.28503,11.96131 -0.28889,23.96003 0,35.92128c0.07135,2.99008 0.73633,3.37157 0.98967,5.05937c0.07522,0.50388 0,1.51779 0,1.51779" fill="none" stroke="#565d96" stroke-width="6.10135" stroke-linecap="round"/><path d="M418.74713,308.82705c0,0 0.33255,8.10909 0.98967,12.14238c0.33255,2.043 1.43698,4.0404 1.97934,6.07123c0.44744,1.67765 0.91445,3.36649 0.98967,5.05937c0.2554,5.72713 0,11.47356 0,17.20175c0,1.43174 0,2.69965 0,4.04744c0,4.88634 -0.29881,9.78879 0,14.6721c0.07522,1.2213 0.98967,1.51779 0.98967,1.51779" fill="none" stroke="#565d96" stroke-width="6.10135" stroke-linecap="round"/><path d="M432.60264,308.82705c0,0 0.37209,5.41248 0.98967,8.09494c0.70271,3.05382 2.24453,6.05502 2.96901,9.10681c0.59581,2.51451 0.41176,5.07352 0.98967,7.58901c0.74032,3.21876 2.07246,6.40411 2.96901,9.61273c0.42168,1.51068 0.87891,3.02853 0.98968,4.55337c0.21972,3.03058 0,6.07425 0,9.10681c0,3.20057 -0.24935,6.41426 0,9.61279c0.07921,1.02397 0.98979,3.03558 0.98979,3.03558" fill="none" stroke="#565d96" stroke-width="6.10135" stroke-linecap="round"/><path d="M466.25168,313.38041c0,0 0.65712,3.29065 0.98967,5.05937c1.33008,7.07498 2.89186,14.16209 3.95868,21.24918c0.26725,1.77181 0,2.99515 0,5.05937c0,8.25586 0,24.79076 0,24.79076" fill="none" stroke="#565d96" stroke-width="6.10135" stroke-linecap="round"/><path d="M477.13818,310.85077c0,0 -1.97933,0 -2.96913,0c-1.97728,0 -3.97053,0.10021 -5.93802,0c-1.35185,-0.06881 -2.65629,-0.30657 -3.95868,-0.50593c-1.99725,-0.30663 -3.89338,-0.80241 -5.93802,-1.01186c-1.2926,-0.13254 -2.65037,0.08395 -3.95881,0c-1.34785,-0.08599 -2.68592,-0.26206 -3.95868,-0.50593c-1.37966,-0.26409 -2.52956,-0.82875 -3.95868,-1.01186c-1.27869,-0.16394 -2.64045,0 -3.95868,0c-1.31836,0 -2.64058,0 -3.95881,0c-1.97728,0 -3.97053,0.10015 -5.93802,0c-1.35185,-0.06881 -2.67021,-0.28635 -3.95868,-0.50593c-1.68453,-0.2874 -3.26396,-0.72452 -4.94848,-1.01186c-1.28848,-0.21959 -2.63246,-0.35522 -3.95868,-0.506c-1.64087,-0.18614 -3.30748,-0.31973 -4.94835,-0.50593c-1.32621,-0.15071 -2.67021,-0.28635 -3.95868,-0.50593c-1.68453,-0.28733 -3.26396,-0.72446 -4.94848,-1.01186c-1.28848,-0.21959 -2.64045,-0.33797 -3.95868,-0.50593c-1.31823,-0.16796 -2.67007,-0.28635 -3.95868,-0.50594c-1.68439,-0.28733 -3.22634,-0.79228 -4.94835,-1.01185c-2.2605,-0.28938 -4.63576,-0.2924 -6.92782,-0.50594c-1.336,-0.12444 -2.63247,-0.35514 -3.95868,-0.50593c-1.64087,-0.1862 -3.30156,-0.33797 -4.94835,-0.50593c-1.64691,-0.16796 -3.27593,-0.42093 -4.94848,-0.50594c-1.6388,-0.08401 -3.30156,0 -4.94835,0c-1.31823,0 -2.64045,0 -3.95868,0c-1.64679,0 -3.33917,0.18311 -4.94835,0c-1.43904,-0.16394 -2.57914,-0.74776 -3.95881,-1.01185c-1.27263,-0.24388 -2.64045,-0.33797 -3.95868,-0.50594c-1.31823,-0.16796 -2.64045,-0.33796 -3.95868,-0.50593c-1.31823,-0.16803 -2.68605,-0.26212 -3.95868,-0.506c-1.37966,-0.26409 -2.51977,-0.84791 -3.95881,-1.01186c-1.60918,-0.18311 -3.30156,0 -4.94835,0c-1.31823,0 -2.64045,0 -3.95868,0c-1.97741,0 -3.96074,0 -5.93815,0c-1.31823,0 -2.67213,0.14571 -3.95868,0c-1.73192,-0.19726 -3.21643,-0.81453 -4.94835,-1.01186c-1.28654,-0.14571 -2.67214,0.14571 -3.95868,0c-1.73192,-0.19733 -3.24811,-0.75079 -4.94848,-1.01186c-1.60918,-0.24691 -3.35501,-0.23473 -4.94835,-0.50594c-1.39744,-0.23775 -2.54746,-0.7953 -3.95868,-1.01185c-1.91996,-0.29445 -3.96666,-0.32276 -5.93802,-0.50594c-1.65284,-0.1538 -3.30761,-0.31973 -4.94848,-0.50593c-1.32608,-0.15078 -2.63247,-0.35515 -3.95868,-0.50593c-1.64087,-0.1862 -3.30748,-0.3198 -4.94835,-0.50594c-1.32621,-0.15078 -2.64045,-0.33796 -3.95881,-0.50593c-1.31823,-0.16796 -2.63247,-0.35522 -3.95868,-0.50593c-1.64087,-0.1862 -3.27387,-0.42804 -4.94835,-0.50594c-1.96943,-0.09113 -3.96074,0 -5.93802,0c-1.31836,0 -2.64844,0.07486 -3.95881,0c-1.67049,-0.09514 -3.33917,-0.25908 -4.94835,-0.50599c-1.70024,-0.261 -3.29963,-0.67488 -4.94835,-1.01186c-1.64885,-0.33692 -3.32732,-0.64354 -4.94848,-1.01186c-1.34592,-0.30558 -2.59087,-0.73157 -3.95868,-1.01186c-1.9358,-0.39564 -3.927,-0.73157 -5.93802,-1.01186c-1.62116,-0.22564 -3.27387,-0.42804 -4.94835,-0.50593c-1.96955,-0.09105 -3.96074,0 -5.93815,0c-1.64872,0 -3.2995,0 -4.94835,0c-1.64885,0 -3.30955,0.08401 -4.94835,0c-1.67255,-0.085 -3.30761,-0.31973 -4.94848,-0.50593c-1.32609,-0.15078 -2.64045,-0.33797 -3.95868,-0.50593c-1.31823,-0.16796 -2.68205,-0.26818 -3.95868,-0.50593c-2.35942,-0.43817 -4.54664,-1.11206 -6.92782,-1.51779c-1.59334,-0.27121 -3.30749,-0.31979 -4.94835,-0.50593c-1.32621,-0.15078 -2.67008,-0.28641 -3.95868,-0.506c-1.68439,-0.28733 -3.24811,-0.75079 -4.94835,-1.01186c-1.60931,-0.24684 -3.30761,-0.31973 -4.94848,-0.50593c-1.32609,-0.15078 -2.67007,-0.28635 -3.95868,-0.50593c-1.68439,-0.28733 -3.21643,-0.81453 -4.94835,-1.01186c-1.28668,-0.14571 -2.65037,0.08401 -3.95868,0c-1.34798,-0.08599 -2.61083,-0.41995 -3.95881,-0.50593c-1.30831,-0.08395 -2.64045,0 -3.95868,0c-1.64885,0 -3.29963,0 -4.94835,0c-1.31823,0 -2.66221,0.12043 -3.95868,0c-2.36148,-0.21959 -4.60009,-0.71438 -6.92782,-1.01186c-1.63094,-0.20846 -3.32732,-0.28029 -4.94835,-0.50593c-2.01103,-0.28029 -3.94091,-0.7053 -5.93815,-1.01186c-1.30239,-0.19937 -2.64045,-0.33797 -3.95868,-0.50593c-1.31823,-0.16796 -2.64045,-0.33797 -3.95868,-0.50593c-1.31823,-0.16796 -2.64045,-0.33796 -3.95868,-0.50593c-1.31823,-0.16803 -2.68605,-0.26212 -3.95868,-0.50593c-1.37967,-0.26416 -2.57914,-0.74783 -3.95881,-1.01193c-1.27263,-0.24381 -2.60877,-0.42902 -3.95868,-0.50593c-1.63687,-0.09309 -3.31148,0.09309 -4.94835,0c-1.34991,-0.0769 -2.64045,-0.33797 -3.95868,-0.50593c-1.31836,-0.16796 -2.68604,-0.26205 -3.95881,-0.50593c-1.37954,-0.26409 -2.57901,-0.74777 -3.95868,-1.01186c-1.27277,-0.24388 -2.64045,-0.33796 -3.95868,-0.50593c-1.31823,-0.16796 -2.60877,-0.42902 -3.95868,-0.50593c-1.637,-0.09309 -3.31148,0.09309 -4.94848,0c-1.34991,-0.0769 -2.6107,-0.41995 -3.95868,-0.50593c-1.30831,-0.08401 -2.64045,0 -3.95868,0c-1.31823,0 -2.64045,0 -3.95868,0c-1.31836,0 -2.65037,-0.08401 -3.95881,0c-1.34785,0.08599 -2.6067,0.43712 -3.95868,0.50593c-1.96749,0.10015 -3.96074,0 -5.93802,0c-1.64885,0 -3.32732,0.15078 -4.94848,0c-2.05056,-0.19022 -3.94077,-0.7053 -5.93802,-1.01186c-1.30239,-0.19937 -2.77105,-0.16902 -3.95868,-0.50593c-1.84475,-0.52416 -3.36094,-1.31342 -4.94835,-2.02373c-1.05304,-0.47057 -1.90811,-1.05236 -2.96914,-1.51785c-1.25087,-0.5484 -2.51771,-1.10897 -3.95868,-1.51779c-1.55174,-0.44015 -3.22634,-0.79228 -4.94835,-1.01186c-2.2605,-0.28937 -6.92782,-0.50593 -6.92782,-0.50593" fill="none" stroke="#e5e5e5" stroke-width="3.07363" stroke-linecap="round"/></g></g></svg>