<svg version="1.1" xmlns="http://www.w3.org/2000/svg" xmlns:xlink="http://www.w3.org/1999/xlink" width="85.13148" height="104.88243" viewBox="0,0,85.13148,104.88243"><defs><linearGradient x1="248.84748" y1="132.94644" x2="248.84748" y2="160.76866" gradientUnits="userSpaceOnUse" id="color-1"><stop offset="0" stop-color="#a5ff69"/><stop offset="1" stop-color="#67ff00"/></linearGradient></defs><g transform="translate(-198.04952,-132.01608)"><g data-paper-data="{&quot;isPaintingLayer&quot;:true}" fill-rule="nonzero" stroke-linejoin="miter" stroke-miterlimit="10" stroke-dasharray="" stroke-dashoffset="0" style="mix-blend-mode: normal"><path d="M244.62636,147.83137c0,7.14507 -1.49477,12.93729 -3.33866,12.93729c-1.84389,0 -3.33866,-5.79222 -3.33866,-12.93729c0,-7.14507 5.45942,-14.18929 12.93729,-14.81529c11.47983,-0.96102 9.21367,8.30336 7.28085,10.55536c-6.42093,7.4813 -13.54083,0.51716 -13.54083,4.25992z" fill="url(#color-1)" stroke="#000000" stroke-width="2" stroke-linecap="butt"/><path d="M282.08908,219.31645c0.01592,2.17605 0.06345,8.67224 0.09188,12.5583c0.01312,1.7937 -2.85686,3.05238 -5.17436,3.06933c-4.68302,0.03426 -21.2192,0.15525 -21.2192,0.15525l-0.13624,-18.62093c0,0 17.56654,-0.12852 22.08529,-0.16159c2.00094,-0.01464 4.34237,1.59719 4.35263,2.99964z" data-paper-data="{&quot;index&quot;:null}" fill="#4ec300" stroke="#000000" stroke-width="2" stroke-linecap="butt"/><path d="M206.82396,217.03759c4.44767,0.03254 21.73787,0.15904 21.73787,0.15904l-0.1341,18.32801c0,0 -16.27605,-0.11908 -20.88541,-0.15281c-2.28104,-0.01669 -5.10588,-1.25556 -5.09297,-3.02105c0.02798,-3.82493 0.07477,-10.21893 0.09044,-12.36075c0.0101,-1.38039 2.3147,-2.96686 4.28416,-2.95245z" fill="#4ec300" stroke="#000000" stroke-width="2" stroke-linecap="butt"/><path d="M282.02561,193.17061c0,9.80257 -0.16485,23.73285 -6.92277,30.40491c-7.49104,7.39587 -19.99946,11.45427 -31.90525,11.45427c-12.09337,0 -25.97555,-2.74482 -33.48073,-10.34524c-6.54924,-6.63235 -9.7011,-21.88258 -9.7011,-31.51395c0,-16.6318 12.83581,-30.436 29.37006,-36.03306c4.01306,-1.35847 7.56995,-4.25562 11.99298,-4.25562c4.98853,0 9.39351,2.02639 13.78843,3.73194c15.55665,6.03712 26.85837,20.44105 26.85837,36.55674z" fill="#67ff00" stroke="#000000" stroke-width="2" stroke-linecap="butt"/><path d="M273.07257,174.13624c0,7.94151 -5.02105,14.58464 -11.74018,16.25038c-0.26533,0.06578 -8.43988,0.50693 -13.69339,-2.45038c-4.63266,-2.60782 -6.43639,-8.65475 -6.43639,-8.65475c0,0 -2.10185,5.79244 -7.47222,8.68591c-5.31448,2.86335 -13.89655,2.82844 -14.18364,2.75526c-6.67498,-1.70165 -11.65231,-8.32143 -11.65231,-16.22828c0,-8.03535 5.14042,-14.74146 11.97908,-16.30734c0.24444,-0.05597 8.94255,0.56285 14.05913,4.1034c5.24269,3.62781 6.90384,10.18017 6.90384,10.18017c0,0 3.14783,-8.26624 7.83645,-11.92536c4.83184,-3.77088 11.21119,-2.93764 11.37867,-2.91275c7.3517,1.09261 13.02096,8.06518 13.02096,16.50375z" fill="#ffffff" stroke="#000000" stroke-width="2" stroke-linecap="butt"/><path d="M219.69875,232.31729c0,-3.73694 0,-18.2642 0,-18.2642h15.39923c0,0 0,13.67517 0,17.54796c0,1.91654 -1.02348,4.29746 -2.50685,4.29746c-3.21371,0 -8.58596,0 -10.38553,0c-1.15981,0 -2.50685,-1.92648 -2.50685,-3.58122z" fill="#67ff00" stroke="#000000" stroke-width="2" stroke-linecap="butt"/><path d="M251.9434,231.97288c0,-3.73694 0,-18.2642 0,-18.2642h15.39923c0,0 0,13.67517 0,17.54796c0,1.91653 -1.02349,4.29746 -2.50685,4.29746c-3.21371,0 -8.58596,0 -10.38553,0c-1.15981,0 -2.50685,-1.92647 -2.50685,-3.58122z" fill="#67ff00" stroke="#000000" stroke-width="2" stroke-linecap="butt"/><path d="M215.77311,223.75854v-16.49605h23.2779v16.49605z" fill="#67ff00" stroke="#000000" stroke-width="0" stroke-linecap="butt"/><path d="M248.7203,223.3412v-14.64623h20.41293v14.64623z" fill="#67ff00" stroke="none" stroke-width="0" stroke-linecap="butt"/><path d="M235.11168,175.74778c0,3.16456 -1.28269,5.72995 -2.86497,5.72995c-1.58228,0 -2.86497,-2.56538 -2.86497,-5.72995c0,-3.16456 1.28269,-5.72995 2.86497,-5.72995c1.58228,0 2.86497,2.56538 2.86497,5.72995z" fill="#000000" stroke="#000000" stroke-width="0" stroke-linecap="butt"/><path d="M253.734,175.92685c0,2.86788 -1.20252,5.19276 -2.68591,5.19276c-1.48339,0 -2.68591,-2.32488 -2.68591,-5.19276c0,-2.86788 1.20252,-5.19276 2.68591,-5.19276c1.48339,0 2.68591,2.32488 2.68591,5.19276z" fill="#000000" stroke="none" stroke-width="0" stroke-linecap="butt"/><path d="M280.235,196.87696c0,0 -19.61006,10.65983 -37.59665,11.07636c-19.30525,0.44706 -43.33883,-10.36012 -43.33883,-10.36012" fill="none" stroke="#000000" stroke-width="2.5" stroke-linecap="round"/><path d="M219.51413,204.27555c0,0 -3.20673,5.77488 -7.16243,5.77488c-3.9557,0 -7.16243,-3.12656 -7.16243,-6.98337c0,-1.00437 0.60899,-2.82221 0.60899,-2.82221z" fill="#ffffff" stroke="#000000" stroke-width="2.5" stroke-linecap="butt"/><path d="M239.05102,207.44155c0,0 -2.80589,6.62525 -6.26713,6.62525c-3.46124,0 -6.26713,-7.6611 -6.26713,-7.6611z" fill="#ffffff" stroke="#000000" stroke-width="2.5" stroke-linecap="butt"/><path d="M259.98101,205.54162c0,0 -2.97853,8.86959 -6.43977,8.86959c-3.46124,0 -6.26712,-6.62525 -6.26712,-6.62525z" fill="#ffffff" stroke="#000000" stroke-width="2.5" stroke-linecap="butt"/><path d="M277.34263,198.92193c0,0 -2.80589,9.38752 -6.26713,9.38752c-3.46124,0 -6.26713,-4.72619 -6.26713,-4.72619z" fill="#ffffff" stroke="#000000" stroke-width="2.5" stroke-linecap="butt"/><path d="M239.16789,154.5072v-3.16427h4.33276v3.16427z" fill="#67ff00" stroke="#000000" stroke-width="0" stroke-linecap="butt"/><path d="M234.29395,173.30679c0,1.00115 -0.34782,1.81274 -0.77689,1.81274c-0.42906,0 -0.77689,-0.81159 -0.77689,-1.81274c0,-1.00115 0.34782,-1.81274 0.77689,-1.81274c0.42906,0 0.77689,0.81159 0.77689,1.81274z" fill="#ffffff" stroke="none" stroke-width="0" stroke-linecap="butt"/><path d="M252.7666,173.91104c0,0.85813 -0.30918,1.55377 -0.69057,1.55377c-0.38139,0 -0.69057,-0.69565 -0.69057,-1.55377c0,-0.85813 0.30918,-1.55377 0.69057,-1.55377c0.38139,0 0.69057,0.69565 0.69057,1.55377z" fill="#ffffff" stroke="none" stroke-width="0" stroke-linecap="butt"/></g></g></svg>