<svg version="1.1" xmlns="http://www.w3.org/2000/svg" xmlns:xlink="http://www.w3.org/1999/xlink" width="186.50001" height="38.32021" viewBox="0,0,186.50001,38.32021"><defs><linearGradient x1="240" y1="163.83546" x2="240" y2="196.16454" gradientUnits="userSpaceOnUse" id="color-1"><stop offset="0" stop-color="#ff4949"/><stop offset="1" stop-color="#ff2b2b"/></linearGradient></defs><g transform="translate(-146.75001,-159.53943)"><g data-paper-data="{&quot;isPaintingLayer&quot;:true}" fill-rule="nonzero" stroke-linecap="butt" stroke-linejoin="miter" stroke-miterlimit="10" stroke-dasharray="" stroke-dashoffset="0" style="mix-blend-mode: normal"><path d="M331.5,180.06725c0,8.08699 -10.04155,14.79118 -23.17424,16.01458c-1.40919,0.13128 -134.08076,0.07843 -134.94185,0.03052c-13.96076,-0.77678 -24.8839,-7.70709 -24.8839,-16.14162c0,-8.34255 10.68623,-15.21352 24.42832,-16.11402c1.00844,-0.06608 133.29818,0.03605 134.38413,0.11292c13.62594,0.9645 24.18756,7.80384 24.18756,16.09761z" fill="url(#color-1)" stroke="#9c3030" stroke-width="3.5"/><text transform="translate(184.06533,187.88208) scale(0.73929,0.65684)" font-size="40" xml:space="preserve" fill="#ffffff" fill-rule="nonzero" stroke="#9c3030" stroke-width="1.5" stroke-linecap="butt" stroke-linejoin="miter" stroke-miterlimit="10" stroke-dasharray="" stroke-dashoffset="0" font-family="Sans Serif" font-weight="normal" text-anchor="start" style="mix-blend-mode: normal"><tspan x="0" dy="0">Options</tspan></text><path d="M175.60392,168.96547c0.79446,1.07857 -6.06847,1.23306 -11.62303,4.45692c-5.55456,3.22387 -8.07285,6.96297 -8.86731,5.8844c-0.79446,-1.07857 0.43576,-6.56639 5.99031,-9.79026c5.55456,-3.22387 13.70557,-1.62964 14.50003,-0.55106z" fill="#ffffff" stroke="none" stroke-width="0"/><path d="M303.95788,189.46898c-0.79446,-1.07858 6.06847,-1.23306 11.62303,-4.45692c5.55456,-3.22386 8.07286,-6.96297 8.86732,-5.8844c0.79446,1.07858 -0.43575,6.56639 -5.99031,9.79026c-5.55456,3.22386 -13.70558,1.62964 -14.50004,0.55106z" data-paper-data="{&quot;index&quot;:null}" fill="#ffffff" stroke="none" stroke-width="0"/></g></g></svg>