<svg version="1.1" xmlns="http://www.w3.org/2000/svg" xmlns:xlink="http://www.w3.org/1999/xlink" width="84.43389" height="104.88244" viewBox="0,0,84.43389,104.88244"><defs><linearGradient x1="248.84748" y1="132.94647" x2="248.84748" y2="160.7687" gradientUnits="userSpaceOnUse" id="color-1"><stop offset="0" stop-color="#a5ff69"/><stop offset="1" stop-color="#67ff00"/></linearGradient></defs><g transform="translate(-200.09765,-132.01611)"><g data-paper-data="{&quot;isPaintingLayer&quot;:true}" fill-rule="nonzero" stroke-linejoin="miter" stroke-miterlimit="10" stroke-dasharray="" stroke-dashoffset="0" style="mix-blend-mode: normal"><path d="M244.62636,147.8314c0,7.14507 -1.49477,12.93729 -3.33866,12.93729c-1.84389,0 -3.33866,-5.79222 -3.33866,-12.93729c0,-7.14507 5.45942,-14.18929 12.93729,-14.81529c11.47983,-0.96102 9.21367,8.30336 7.28085,10.55536c-6.42093,7.4813 -13.54083,0.51716 -13.54083,4.25992z" fill="url(#color-1)" stroke="#000000" stroke-width="2" stroke-linecap="butt"/><path d="M282.08908,219.31649c0.01592,2.17605 0.06345,8.67224 0.09188,12.5583c0.01312,1.7937 -2.85686,3.05238 -5.17436,3.06933c-4.68302,0.03426 -21.2192,0.15525 -21.2192,0.15525l-0.13624,-18.62093c0,0 17.56654,-0.12852 22.08529,-0.16159c2.00094,-0.01464 4.34237,1.59719 4.35263,2.99964z" data-paper-data="{&quot;index&quot;:null}" fill="#4ec300" stroke="#000000" stroke-width="2" stroke-linecap="butt"/><path d="M206.82396,217.03763c4.44767,0.03254 21.73787,0.15904 21.73787,0.15904l-0.1341,18.32801c0,0 -16.27605,-0.11908 -20.88541,-0.15281c-2.28104,-0.01669 -5.10588,-1.25556 -5.09297,-3.02105c0.02798,-3.82493 0.07477,-10.21893 0.09044,-12.36075c0.0101,-1.38039 2.3147,-2.96686 4.28416,-2.95245z" fill="#4ec300" stroke="#000000" stroke-width="2" stroke-linecap="butt"/><path d="M275.10284,223.57556c-7.49104,7.39587 -19.99946,11.45427 -31.90525,11.45427c-12.09337,0 -25.97555,-2.74482 -33.48073,-10.34524c-6.54924,-6.63235 -8.95507,-10.69214 -8.58206,-21.06954c0.59744,-16.62107 11.71677,-40.88041 28.25102,-46.47747c4.01306,-1.35847 7.56995,-4.25562 11.99298,-4.25562c4.98853,0 9.39351,2.02639 13.78843,3.73194c9.98688,3.87564 25.63884,26.09446 28.36432,44.4194c1.52002,10.21999 -6.63444,20.77078 -8.42871,22.54226z" fill="#67ff00" stroke="#000000" stroke-width="2" stroke-linecap="butt"/><path d="M280.38026,178.52483c0,10.31982 -5.88747,18.95243 -13.76605,21.11702c-0.31111,0.08548 -9.89625,0.65875 -16.0563,-3.18421c-5.43206,-3.3888 -7.54704,-11.24666 -7.54704,-11.24666c0,0 -2.46455,7.52715 -8.76162,11.28715c-6.23154,3.72087 -16.29451,3.67551 -16.63115,3.58041c-7.82681,-2.21125 -13.66301,-10.81352 -13.66301,-21.08829c0,-10.44177 5.66931,-8.83719 13.68804,-14.44398c0.28662,-0.07273 10.84378,-6.01564 16.84328,-1.41477c6.14736,4.71426 8.09516,13.22891 8.09516,13.22891c0,0 3.69101,-10.7418 9.18869,-15.49675c5.66561,-4.90017 16.01075,2.92965 16.20712,2.962c8.62029,5.78555 12.40286,3.73348 12.40286,14.69921z" fill="#ffffff" stroke="#000000" stroke-width="2" stroke-linecap="butt"/><path d="M219.69875,232.31733c0,-3.73694 0,-18.2642 0,-18.2642h15.39923c0,0 0,13.67517 0,17.54796c0,1.91654 -1.02348,4.29746 -2.50685,4.29746c-3.21371,0 -8.58596,0 -10.38553,0c-1.15981,0 -2.50685,-1.92648 -2.50685,-3.58122z" fill="#67ff00" stroke="#000000" stroke-width="2" stroke-linecap="butt"/><path d="M251.9434,231.97292c0,-3.73694 0,-18.2642 0,-18.2642h15.39923c0,0 0,13.67517 0,17.54796c0,1.91653 -1.02349,4.29746 -2.50685,4.29746c-3.21371,0 -8.58596,0 -10.38553,0c-1.15981,0 -2.50685,-1.92647 -2.50685,-3.58122z" fill="#67ff00" stroke="#000000" stroke-width="2" stroke-linecap="butt"/><path d="M215.77311,223.75858v-16.49605h23.2779v16.49605z" fill="#67ff00" stroke="#000000" stroke-width="0" stroke-linecap="butt"/><path d="M248.7203,223.34124v-14.64623h20.41293v14.64623z" fill="#67ff00" stroke="none" stroke-width="0" stroke-linecap="butt"/><path d="M238.33478,177.89655c0,5.73577 -2.32488,10.38554 -5.19276,10.38554c-2.86789,0 -5.19276,-4.64975 -5.19276,-10.38554c0,-5.73577 2.32487,-10.38554 5.19276,-10.38554c2.86789,0 5.19276,4.64976 5.19276,10.38554z" fill="#000000" stroke="#000000" stroke-width="0" stroke-linecap="butt"/><path d="M257.67334,177.93237c0,5.16218 -2.16454,9.34697 -4.83464,9.34697c-2.67011,0 -4.83464,-4.18479 -4.83464,-9.34697c0,-5.16218 2.16453,-9.34697 4.83464,-9.34697c2.67011,0 4.83464,4.18479 4.83464,9.34697z" fill="#000000" stroke="none" stroke-width="0" stroke-linecap="butt"/><path d="M239.16789,154.50724v-3.16427h4.33276v3.16427z" fill="#67ff00" stroke="#000000" stroke-width="0" stroke-linecap="butt"/><path d="M236.88358,174.68794c0,2.04997 -0.7343,3.71179 -1.64009,3.71179c-0.9058,0 -1.64009,-1.66183 -1.64009,-3.71179c0,-2.04997 0.7343,-3.71179 1.64009,-3.71179c0.9058,0 1.64009,1.66183 1.64009,3.71179z" fill="#ffffff" stroke="#000000" stroke-width="0" stroke-linecap="butt"/><path d="M256.21943,174.86058c0,1.57323 -0.38647,2.84859 -0.86321,2.84859c-0.47674,0 -0.86321,-1.27536 -0.86321,-2.84859c0,-1.57323 0.38647,-2.84859 0.86321,-2.84859c0.47674,0 0.86321,1.27536 0.86321,2.84859z" fill="#ffffff" stroke="none" stroke-width="0" stroke-linecap="butt"/><path d="M252.42132,182.28417c0,1.38254 -0.57971,2.5033 -1.29481,2.5033c-0.7151,0 -1.29481,-1.12077 -1.29481,-2.5033c0,-1.38254 0.57971,-2.5033 1.29481,-2.5033c0.7151,0 1.29481,1.12077 1.29481,2.5033z" fill="#ffffff" stroke="none" stroke-width="0" stroke-linecap="butt"/><path d="M232.91282,182.54313c0,1.71625 -0.69565,3.10755 -1.55377,3.10755c-0.85813,0 -1.55377,-1.3913 -1.55377,-3.10755c0,-1.71625 0.69565,-3.10755 1.55377,-3.10755c0.85813,0 1.55377,1.3913 1.55377,3.10755z" fill="#ffffff" stroke="none" stroke-width="0" stroke-linecap="butt"/><path d="M206.41912,216.06821c0,0 3.72015,-1.98799 13.70894,-4.48384c6.45568,-1.61305 15.98712,3.70471 22.92778,3.88021c5.35555,0.13542 16.54179,-6.64065 21.37108,-5.17092c10.02431,3.05077 13.69857,7.54555 13.69857,7.54555" data-paper-data="{&quot;index&quot;:null}" fill="none" stroke="#000000" stroke-width="2.5" stroke-linecap="round"/><path d="M219.06134,212.17094c0,0 0.55772,1.81784 0.55772,2.82221c0,3.85681 -2.93674,6.98337 -6.5594,6.98337c-3.62266,0 -6.5594,-5.77488 -6.5594,-5.77488z" data-paper-data="{&quot;index&quot;:null}" fill="#ffffff" stroke="#000000" stroke-width="2.5" stroke-linecap="butt"/><path d="M239.27933,215.51272c0,0 -4.04695,5.84117 -7.12899,5.10031c-3.08203,-0.74086 -3.78994,-8.79036 -3.78994,-8.79036z" data-paper-data="{&quot;index&quot;:null}" fill="#ffffff" stroke="#000000" stroke-width="2.5" stroke-linecap="butt"/><path d="M257.55604,212.98501c0,0 -2.72776,8.86959 -5.89758,8.86959c-3.16983,0 -5.73947,-6.62525 -5.73947,-6.62525z" data-paper-data="{&quot;index&quot;:null}" fill="#ffffff" stroke="#000000" stroke-width="2.5" stroke-linecap="butt"/><path d="M277.67223,216.86918c0,0 -2.56965,4.72619 -5.73948,4.72619c-3.16983,0 -5.73948,-9.38752 -5.73948,-9.38752z" data-paper-data="{&quot;index&quot;:null}" fill="#ffffff" stroke="#000000" stroke-width="2.5" stroke-linecap="butt"/></g></g></svg>